<svg width="10589" height="6927" viewBox="0 0 10589 6927" fill="none" xmlns="http://www.w3.org/2000/svg">
<g clip-path="url(#clip0)">
<rect width="10589" height="6927" fill="white"/>
<g clip-path="url(#clip1)">
<rect x="1579.5" y="6274.5" width="1557.44" height="1557.44" fill="white"/>
<rect x="2096.15" y="6810.56" width="514.44" height="495.027" stroke="black" stroke-width="116.477"/>
<rect x="1630.24" y="6315.53" width="514.44" height="495.027" stroke="black" stroke-width="116.477"/>
</g>
<rect x="1579.5" y="6274.5" width="1557.44" height="1557.44" stroke="black" stroke-width="15"/>
<g clip-path="url(#clip2)">
<rect x="4724.5" y="7.5" width="1557.44" height="1557.44" fill="white"/>
<rect x="4920.84" y="1077.41" width="1164.77" height="291.193" fill="black"/>
<rect x="5881.77" y="-19.4121" width="106.771" height="1242.42" fill="black"/>
<rect x="5027.61" y="-19.4121" width="106.771" height="1242.42" fill="black"/>
</g>
<rect x="4724.5" y="7.5" width="1557.44" height="1557.44" stroke="black" stroke-width="15"/>
<g clip-path="url(#clip3)">
<rect x="7868.5" y="7.5" width="1557.44" height="1557.44" fill="black"/>
<rect x="7861" y="1426.84" width="1572.44" height="145.596" fill="white"/>
<rect x="7861" y="1193.89" width="1591.85" height="145.596" fill="white"/>
<rect x="8288.08" y="155.303" width="737.688" height="892.991" fill="white"/>
<rect x="8487.14" y="300.898" width="339.571" height="776.514" fill="black"/>
<circle cx="8652.08" cy="441.642" r="82.5046" fill="white"/>
<circle cx="8089.1" cy="684.302" r="82.5046" fill="white"/>
<circle cx="9215.05" cy="684.302" r="82.5046" fill="white"/>
</g>
<rect x="7868.5" y="7.5" width="1557.44" height="1557.44" stroke="black" stroke-width="15"/>
<g clip-path="url(#clip4)">
<rect x="7.5" y="1579.5" width="1557.44" height="1557.44" fill="black"/>
<rect x="611.504" y="1572" width="960.936" height="1572.44" fill="white"/>
<rect y="2329.1" width="621.211" height="58.2385" fill="white"/>
<rect x="941.523" y="1775.83" width="621.211" height="58.2385" fill="black"/>
<rect x="689.156" y="2047.61" width="621.211" height="58.2385" fill="black"/>
<rect x="825.043" y="2299.98" width="679.449" height="58.2385" fill="black"/>
<rect x="650.328" y="2571.76" width="621.211" height="58.2385" fill="black"/>
<rect x="776.512" y="2862.95" width="621.211" height="58.2385" fill="black"/>
</g>
<rect x="7.5" y="1579.5" width="1557.44" height="1557.44" stroke="black" stroke-width="15"/>
<rect x="1579.5" y="1579.5" width="1557.44" height="1557.44" fill="white"/>
<rect x="2173.8" y="2639.71" width="397.963" height="135.89" fill="black"/>
<rect x="1717.59" y="2406.75" width="1310.37" height="135.89" fill="black"/>
<rect x="1960.25" y="2173.8" width="825.046" height="135.89" fill="black"/>
<rect x="1853.48" y="1940.84" width="1038.59" height="135.89" fill="black"/>
<rect x="1579.5" y="1579.5" width="1557.44" height="1557.44" stroke="black" stroke-width="15"/>
<g clip-path="url(#clip5)">
<rect x="9440.5" y="7.5" width="1557.44" height="1557.44" fill="black"/>
<rect x="9879.5" y="611.505" width="747.394" height="747.394" stroke="white" stroke-width="135.89"/>
<path d="M10617.2 300.898L9549.48 1368.6" stroke="black" stroke-width="116.477"/>
<path d="M10859.8 689.155L9792.14 1756.86" stroke="black" stroke-width="116.477"/>
<rect x="9433" y="242.66" width="1572.44" height="145.596" fill="white"/>
<rect x="9394.17" width="1630.68" height="145.596" fill="white"/>
</g>
<rect x="9440.5" y="7.5" width="1557.44" height="1557.44" stroke="black" stroke-width="15"/>
<g clip-path="url(#clip6)">
<rect x="6285.35" y="6299.35" width="1568.74" height="1568.74" fill="white"/>
<path d="M7099.04 6740.24L7880.98 6292V7885.21L7099.04 7490.56V6740.24Z" fill="black"/>
<rect x="6756.94" y="6731.84" width="127.066" height="762.397" fill="black"/>
<rect x="6502.81" y="6731.84" width="127.066" height="762.397" fill="black"/>
</g>
<rect x="6285.35" y="6299.35" width="1568.74" height="1568.74" stroke="black" stroke-width="14.7029"/>
<g clip-path="url(#clip7)">
<rect x="6295.51" y="1578.79" width="1558.87" height="1558.87" fill="black"/>
<path d="M6870.92 2207.63V1561.56H6283.14V2795.41H6637.75V2873.13V3154.88H7871.59V2542.81H7172.09V2207.63H6870.92Z" fill="white"/>
</g>
<rect x="6295.51" y="1578.79" width="1558.87" height="1558.87" stroke="black" stroke-width="15.0137"/>
<g clip-path="url(#clip8)">
<rect x="1580.5" y="4721.5" width="1557" height="1557" fill="black"/>
<path d="M2785.96 4694.59C2785.96 4736.64 2774.92 4778.28 2753.46 4817.14C2732 4855.99 2700.55 4891.29 2660.91 4921.02C2621.26 4950.76 2574.19 4974.35 2522.39 4990.44C2470.59 5006.53 2415.07 5014.81 2359 5014.81C2302.93 5014.81 2247.41 5006.53 2195.61 4990.44C2143.8 4974.35 2096.74 4950.76 2057.09 4921.02C2017.44 4891.29 1985.99 4855.99 1964.54 4817.14C1943.08 4778.28 1932.04 4736.64 1932.04 4694.59L2359 4694.59H2785.96Z" fill="white"/>
<circle cx="2359" cy="5305.93" r="203.778" fill="white"/>
<rect x="2215.19" y="5296.22" width="234.1" height="1032.36" transform="rotate(53.1929 2215.19 5296.22)" fill="white"/>
</g>
<rect x="1580.5" y="4721.5" width="1557" height="1557" stroke="black" stroke-width="14.9958"/>
<g clip-path="url(#clip9)">
<rect x="3151.5" y="4702.5" width="1557.44" height="1557.44" fill="black"/>
<rect x="3144" y="4695" width="417.376" height="1572.44" fill="white"/>
<rect x="3144" y="5888.89" width="1572.44" height="378.55" fill="white"/>
</g>
<rect x="3151.5" y="4702.5" width="1557.44" height="1557.44" stroke="black" stroke-width="15"/>
<g clip-path="url(#clip10)">
<rect x="7868.5" y="4723.5" width="1557.44" height="1557.44" fill="black"/>
<rect x="7861" y="4716" width="417.376" height="1572.44" fill="white"/>
<rect x="7861" y="5909.89" width="1572.44" height="378.55" fill="white"/>
<rect x="7861" y="4677.17" width="1572.44" height="427.082" fill="white"/>
</g>
<rect x="7868.5" y="4723.5" width="1557.44" height="1557.44" stroke="black" stroke-width="15"/>
<g clip-path="url(#clip11)">
<rect x="7.5" y="4721.5" width="1557.44" height="1557.44" fill="white"/>
<rect y="4714" width="417.376" height="1572.44" fill="black"/>
<rect y="5907.89" width="1572.44" height="378.55" fill="black"/>
</g>
<rect x="7.5" y="4721.5" width="1557.44" height="1557.44" stroke="black" stroke-width="15"/>
<g clip-path="url(#clip12)">
<rect x="3151.5" y="1579.5" width="1557.44" height="1557.44" fill="white"/>
<rect x="3144" y="2765.89" width="1572.44" height="378.55" fill="black"/>
<rect x="3144" y="2455.28" width="436.789" height="689.156" fill="black"/>
<rect x="3716.68" y="2455.28" width="436.789" height="689.156" fill="black"/>
<rect x="4328.18" y="2280.57" width="310.605" height="689.156" fill="black"/>
<rect x="3813.74" y="2125.27" width="242.66" height="689.156" fill="black"/>
</g>
<rect x="3151.5" y="1579.5" width="1557.44" height="1557.44" stroke="black" stroke-width="15"/>
<g clip-path="url(#clip13)">
<rect x="4723.5" y="3152.94" width="1557.44" height="1557.44" fill="white"/>
<rect x="4716" y="4523.75" width="1572.44" height="194.128" fill="black"/>
<rect x="5541.05" y="3533.7" width="203.835" height="805.633" fill="black"/>
<circle cx="5133.37" cy="3456.05" r="135.89" fill="black"/>
</g>
<rect x="4723.5" y="3152.94" width="1557.44" height="1557.44" stroke="black" stroke-width="15"/>
<rect x="7868.5" y="1579.5" width="1557.44" height="1557.44" fill="white"/>
<rect x="8142.48" y="2096.15" width="271.78" height="281.486" fill="black"/>
<rect x="8278.38" y="1902.02" width="271.78" height="281.486" fill="black"/>
<rect x="8336.61" y="2581.47" width="271.78" height="281.486" fill="black"/>
<rect x="8821.93" y="2105.85" width="271.78" height="281.486" fill="black"/>
<path d="M8588.98 2630L8889.88 2270.86H8273.52" stroke="black" stroke-width="38.8257"/>
<rect x="7868.5" y="1579.5" width="1557.44" height="1557.44" stroke="black" stroke-width="15"/>
<g clip-path="url(#clip14)">
<rect x="6296.5" y="7.5" width="1557.44" height="1557.44" fill="white"/>
<rect x="6371.5" y="82.5046" width="1407.43" height="1407.43" stroke="black" stroke-width="165.009"/>
<rect x="6701.52" y="402.817" width="757.101" height="766.807" stroke="black" stroke-width="165.009"/>
<rect x="6997.57" y="698.862" width="155.303" height="165.009" stroke="black" stroke-width="155.303"/>
</g>
<rect x="6296.5" y="7.5" width="1557.44" height="1557.44" stroke="black" stroke-width="15"/>
<g clip-path="url(#clip15)">
<rect x="3152.49" y="6274.49" width="1556.01" height="1556.01" fill="white"/>
<rect x="3145" y="6228.21" width="1571" height="1037.64" fill="black"/>
<circle cx="3930.5" cy="6771.27" r="368.506" fill="white"/>
</g>
<rect x="3152.49" y="6274.49" width="1556.01" height="1556.01" stroke="black" stroke-width="14.9863"/>
<rect x="9440.5" y="1579.5" width="1557.44" height="1557.44" fill="black"/>
<ellipse cx="10204.7" cy="2333.95" rx="596.945" ry="499.881" fill="white"/>
<rect x="9440.5" y="1579.5" width="1557.44" height="1557.44" stroke="black" stroke-width="15"/>
<g clip-path="url(#clip16)">
<rect x="7868.5" y="3152.5" width="1557.44" height="1557.44" fill="white"/>
<rect x="8006.59" y="4639.79" width="330.018" height="77.6514" fill="black"/>
<rect x="8006.59" y="4484.49" width="330.018" height="87.3578" fill="black"/>
<rect x="8482.21" y="4397.13" width="330.018" height="29.1193" fill="black"/>
<rect x="8482.21" y="4261.24" width="330.018" height="77.6514" fill="black"/>
<rect x="8957.82" y="3999.17" width="330.018" height="203.835" fill="black"/>
<rect x="8957.82" y="3911.81" width="330.018" height="29.1193" fill="black"/>
<rect x="8957.82" y="3795.33" width="330.018" height="48.5321" fill="black"/>
<rect x="8957.82" y="3698.27" width="330.018" height="29.1193" fill="black"/>
<rect x="8957.82" y="3562.38" width="330.018" height="77.6514" fill="black"/>
<path d="M7789.74 4017.57L7820.53 3115.23L8689.23 3084.37L7789.74 4017.57Z" fill="black"/>
</g>
<rect x="7868.5" y="3152.5" width="1557.44" height="1557.44" stroke="black" stroke-width="15"/>
<g clip-path="url(#clip17)">
<rect x="4723.5" y="1579.94" width="1557.44" height="1557.44" fill="white"/>
<rect x="4716" y="1572.44" width="1572.44" height="252.367" fill="black"/>
<rect x="4716" y="2892.51" width="1572.44" height="252.367" fill="black"/>
<rect x="4716" y="2232.48" width="1572.44" height="252.367" fill="black"/>
<rect x="6288.44" y="1824.81" width="407.67" height="252.367" transform="rotate(90 6288.44 1824.81)" fill="black"/>
<rect x="5754.59" y="2484.84" width="407.67" height="252.367" transform="rotate(90 5754.59 2484.84)" fill="black"/>
<rect x="5502.22" y="1824.81" width="407.67" height="252.367" transform="rotate(90 5502.22 1824.81)" fill="black"/>
<rect x="4968.37" y="2484.84" width="407.67" height="252.367" transform="rotate(90 4968.37 2484.84)" fill="black"/>
</g>
<rect x="4723.5" y="1579.94" width="1557.44" height="1557.44" stroke="black" stroke-width="15"/>
<g clip-path="url(#clip18)">
<rect x="1579.5" y="7.5" width="1557.44" height="1557.44" fill="white"/>
<path d="M1552.59 -19.4121H2358.22V786.221H1552.59V-19.4121Z" fill="black"/>
<path d="M2358.22 786.221H3144.44V1572.44H2358.22V786.221Z" fill="black"/>
<rect x="1707.89" y="155.303" width="126.183" height="135.89" fill="white"/>
<rect x="1882.61" y="320.312" width="126.183" height="135.89" fill="white"/>
<rect x="2057.32" y="485.32" width="126.183" height="135.89" fill="white"/>
<rect x="2668.82" y="330.019" width="126.183" height="135.89" fill="black"/>
<rect x="1892.31" y="1145.36" width="126.183" height="135.89" fill="black"/>
</g>
<rect x="1579.5" y="7.5" width="1557.44" height="1557.44" stroke="black" stroke-width="15"/>
<g clip-path="url(#clip19)">
<rect x="1580.5" y="3151.5" width="1557.38" height="1557.38" fill="black"/>
<line x1="2344.63" y1="4075.78" x2="2344.63" y2="3493.42" stroke="white" stroke-width="29.1182"/>
<rect x="2252.43" y="4056.37" width="203.827" height="174.709" fill="white"/>
<path d="M1825.36 3493.42L1573 4726.09V3493.42H1825.36Z" fill="white"/>
<path d="M2893.02 3493.42L3155.09 4726.09V3493.42H2893.02Z" fill="white"/>
<rect x="1573" y="3493.42" width="1572.38" height="145.591" fill="white"/>
</g>
<rect x="1580.5" y="3151.5" width="1557.38" height="1557.38" stroke="black" stroke-width="15"/>
<g clip-path="url(#clip20)">
<rect x="7.5" y="3151.5" width="1557.38" height="1557.38" fill="black"/>
<line x1="727.953" y1="4265.05" x2="67.9407" y2="4265.05" stroke="white" stroke-width="29.1182"/>
<rect x="679.426" y="4172.84" width="203.827" height="174.709" fill="white"/>
<path d="M262.064 3376.95L0 4726.09V3376.95H262.064Z" fill="white"/>
<path d="M1320.03 3376.95L1572.38 4726.09V3376.95H1320.03Z" fill="white"/>
<rect y="3376.95" width="1572.38" height="184.415" fill="white"/>
</g>
<rect x="7.5" y="3151.5" width="1557.38" height="1557.38" stroke="black" stroke-width="15"/>
<g clip-path="url(#clip21)">
<rect x="9440.5" y="4723.5" width="1557.38" height="1557.38" fill="black"/>
<rect x="9763.01" y="5880.73" width="922.076" height="543.54" stroke="white" stroke-width="155.297"/>
<line x1="9957.13" y1="6040.88" x2="10374.5" y2="6040.88" stroke="white" stroke-width="29.1182"/>
<line x1="9957.13" y1="6128.23" x2="10267.7" y2="6128.23" stroke="white" stroke-width="29.1182"/>
<line x1="9947.42" y1="6215.59" x2="10481.3" y2="6215.59" stroke="white" stroke-width="29.1182"/>
<path d="M10224 5608.96L10656.9 5739.99H9791.15L10224 5608.96Z" fill="white"/>
<path d="M10258 5638.08L10563.8 5269.25H10258L10408.5 5046.01H9428.15" stroke="white" stroke-width="38.8243"/>
</g>
<rect x="9440.5" y="4723.5" width="1557.38" height="1557.38" stroke="black" stroke-width="15"/>
<g clip-path="url(#clip22)">
<rect x="6.5" y="6274.5" width="1557.67" height="1557.67" fill="black"/>
<line x1="1426.05" y1="6267" x2="1426.05" y2="7519.31" stroke="white" stroke-width="291.236"/>
<rect x="202.863" y="6441.74" width="854.291" height="320.359" fill="white"/>
<rect x="202.863" y="6888.3" width="854.291" height="320.359" fill="white"/>
</g>
<rect x="6.5" y="6274.5" width="1557.67" height="1557.67" stroke="black" stroke-width="15"/>
<g clip-path="url(#clip23)">
<rect x="9440.5" y="3152.5" width="1557.38" height="1557.38" fill="black"/>
<rect x="9413.59" y="4552.38" width="1611.21" height="165.003" fill="white"/>
<rect x="9433" y="4358.26" width="1572.38" height="48.5303" fill="white"/>
<rect x="9433" y="4164.14" width="1572.38" height="58.2364" fill="white"/>
<rect x="9433" y="3979.72" width="1572.38" height="38.8243" fill="white"/>
<rect x="9433" y="3775.9" width="1572.38" height="58.2364" fill="white"/>
<rect x="9433" y="3581.77" width="1572.38" height="58.2364" fill="white"/>
<rect x="9433" y="3397.36" width="1572.38" height="38.8243" fill="white"/>
<rect x="9433" y="3203.24" width="1572.38" height="38.8243" fill="white"/>
</g>
<rect x="9440.5" y="3152.5" width="1557.38" height="1557.38" stroke="black" stroke-width="15"/>
<rect x="7868.5" y="6294.5" width="1557.38" height="1557.38" fill="white"/>
<rect x="8064.83" y="6490.83" width="1164.73" height="1164.73" fill="black"/>
<rect x="7868.5" y="6294.5" width="1557.38" height="1557.38" stroke="black" stroke-width="15"/>
<rect x="3151.5" y="7.5" width="1558" height="1558" fill="black"/>
<rect x="3813.98" y="708.822" width="223.327" height="223.327" fill="white"/>
<rect x="3151.5" y="7.5" width="1558" height="1558" stroke="black" stroke-width="15"/>
<rect x="4717.48" y="6293.64" width="1553.04" height="1553.04" fill="black"/>
<rect x="5010.05" y="6673.32" width="212.938" height="212.938" fill="white"/>
<rect x="5639.18" y="6518.45" width="212.938" height="212.938" fill="white"/>
<path d="M5982.79 7045.96L5760.17 6634.6L5145.55 6774.95L5029.41 7326.65L5484.32 7592.82L5982.79 7186.31" stroke="white" stroke-width="58.0741"/>
<rect x="4717.48" y="6293.64" width="1553.04" height="1553.04" stroke="black" stroke-width="14.9582"/>
<rect x="9440.5" y="6295.5" width="1557.38" height="1557.38" fill="black"/>
<path d="M10369.6 7719.64H10054.2V7666.26H9995.95V7612.88H9942.57V7506.11H9894.04V7457.58H9835.8V7345.96H9782.42V7229.49H9733.89V7064.49H9782.42V7015.95H9918.31V6957.72H10083.3V6904.33H10156.1V6850.95H10102.7V6783.01H10141.5V6739.33H10253.2V6957.72H10316.3V7015.95H10369.6V6967.42H10476.4V7015.95H10694.8V7229.49H10646.3V7345.96H10583.2V7457.58H10544.3V7612.88H10476.4V7666.26H10369.6V7719.64Z" fill="white"/>
<path d="M10534.6 6846.1H10481.3H10413.3V6787.86H10534.6V6846.1Z" fill="white"/>
<path d="M9995.95 6846.1V6787.86H9884.33V6846.1H9995.95Z" fill="white"/>
<path d="M9995.95 6729.63H9884.33H9840.66V6642.27H9898.89V6525.8H10054.2V6467.56H10102.7V6409.33H10204.6V6525.8H10272.6V6467.56H10326V6409.33H10379.3V6467.56H10427.9V6525.8H10481.3V6574.33H10534.6V6525.8H10641.4V6467.56H10694.8V6574.33H10534.6V6676.24H10316.3V6642.27H10262.9V6676.24H10156.1V6729.63H10102.7V6642.27H10054.2V6676.24H9995.95V6729.63Z" fill="white"/>
<rect x="9440.5" y="6295.5" width="1557.38" height="1557.38" stroke="black" stroke-width="15"/>
<g clip-path="url(#clip24)">
<rect x="6295.5" y="4709.38" width="1558.37" height="1558.37" transform="rotate(-90 6295.5 4709.38)" fill="black"/>
<line x1="7094.11" y1="4716.88" x2="7094.11" y2="3143.5" stroke="white" stroke-width="97.1224"/>
<path d="M6287.46 4085.59L6287.46 3765.08L6617.68 3765.08L6617.68 4085.59L6287.46 4085.59Z" fill="white"/>
</g>
<rect x="6295.5" y="4709.38" width="1558.37" height="1558.37" transform="rotate(-90 6295.5 4709.38)" stroke="black" stroke-width="15.0095"/>
<g clip-path="url(#clip25)">
<rect x="6285.34" y="4716.34" width="1568.33" height="1568.33" fill="black"/>
<rect x="6805.67" y="5363.7" width="537.438" height="254.062" fill="white"/>
<rect x="7499.45" y="5158.49" width="244.29" height="244.29" fill="white"/>
<rect x="7499.45" y="5627.53" width="244.29" height="244.29" fill="white"/>
<rect x="6405.03" y="5158.49" width="244.29" height="244.29" fill="white"/>
<rect x="6405.03" y="5627.53" width="244.29" height="244.29" fill="white"/>
<rect x="6981.56" y="4709" width="185.66" height="1583" fill="white"/>
</g>
<rect x="6285.34" y="4716.34" width="1568.33" height="1568.33" stroke="black" stroke-width="14.6712"/>
<g clip-path="url(#clip26)">
<rect x="4717.7" y="4723.51" width="1558.98" height="1558.98" fill="white"/>
<rect x="4710.19" y="6231.7" width="165.173" height="1574" transform="rotate(-90 4710.19 6231.7)" fill="black"/>
<rect x="4710.19" y="5998.52" width="592.679" height="1574" transform="rotate(-90 4710.19 5998.52)" fill="black"/>
<rect x="4710.19" y="5357.26" width="573.247" height="524.667" transform="rotate(-90 4710.19 5357.26)" fill="black"/>
<rect x="5293.15" y="5357.26" width="573.247" height="174.889" transform="rotate(-90 5293.15 5357.26)" fill="black"/>
<rect x="5701.23" y="5823.63" width="223.469" height="602.395" transform="rotate(-90 5701.23 5823.63)" fill="white"/>
<rect x="4943.38" y="5823.63" width="223.469" height="602.395" transform="rotate(-90 4943.38 5823.63)" fill="white"/>
<rect x="4797.64" y="5366.97" width="223.469" height="340.062" transform="rotate(-90 4797.64 5366.97)" fill="white"/>
<rect x="5526.34" y="5357.26" width="573.247" height="524.667" transform="rotate(-90 5526.34 5357.26)" fill="black"/>
<rect x="6119.02" y="5357.26" width="573.247" height="165.173" transform="rotate(-90 6119.02 5357.26)" fill="black"/>
<rect x="5623.5" y="5366.97" width="223.469" height="340.062" transform="rotate(-90 5623.5 5366.97)" fill="white"/>
</g>
<rect x="4717.7" y="4723.51" width="1558.98" height="1558.98" stroke="black" stroke-width="15.0154"/>
<g clip-path="url(#clip27)">
<rect x="3151.5" y="3151.5" width="1557.38" height="1557.38" fill="black"/>
<line x1="4687.26" y1="4032.11" x2="4027.25" y2="4032.11" stroke="white" stroke-width="29.1182"/>
<rect x="3823.42" y="3930.19" width="203.827" height="174.709" fill="white"/>
<path d="M3406.06 3619.6L3144 4726.09V3619.6H3406.06Z" fill="white"/>
<path d="M4464.03 3619.6L4716.38 4726.09V3619.6H4464.03Z" fill="white"/>
<rect width="1572.38" height="145.591" transform="matrix(1 0 0 -1 3134.29 3765.19)" fill="white"/>
</g>
<rect x="3151.5" y="3151.5" width="1557.38" height="1557.38" stroke="black" stroke-width="15"/>
<g clip-path="url(#clip28)">
<rect x="7.5" y="7.5" width="1557.44" height="1557.44" fill="black"/>
<path d="M1611.27 -38.8262H-38.8242V1610.66L1611.27 -38.8262Z" fill="white"/>
<rect x="1096.82" y="825.046" width="495.027" height="495.027" fill="white"/>
</g>
<rect x="7.5" y="7.5" width="1557.44" height="1557.44" stroke="black" stroke-width="15"/>
</g>
<defs>
<clipPath id="clip0">
<rect width="10589" height="6927" fill="white"/>
</clipPath>
<clipPath id="clip1">
</clipPath>
<clipPath id="clip2">
</clipPath>
<clipPath id="clip3">
</clipPath>
<clipPath id="clip4">
</clipPath>
<clipPath id="clip5">
</clipPath>
<clipPath id="clip6">
</clipPath>
<clipPath id="clip7">
</clipPath>
<clipPath id="clip8">
</clipPath>
<clipPath id="clip9">
</clipPath>
<clipPath id="clip10">
</clipPath>
<clipPath id="clip11">
</clipPath>
<clipPath id="clip12">
</clipPath>
<clipPath id="clip13">
</clipPath>
<clipPath id="clip14">
</clipPath>
<clipPath id="clip15">
</clipPath>
<clipPath id="clip16">
</clipPath>
<clipPath id="clip17">
</clipPath>
<clipPath id="clip18">
</clipPath>
<clipPath id="clip19">
</clipPath>
<clipPath id="clip20">
</clipPath>
<clipPath id="clip21">
</clipPath>
<clipPath id="clip22">
</clipPath>
<clipPath id="clip23">
</clipPath>
<clipPath id="clip24">
</clipPath>
<clipPath id="clip25">
</clipPath>
<clipPath id="clip26">
</clipPath>
<clipPath id="clip27">
</clipPath>
<clipPath id="clip28">
</clipPath>
</defs>
</svg>
